Coordinates
version=1
nRows=12
nColumns=24
inDegrees=yes

Units are S.I. units (second, meters, Newtons, ...)
Angles are in degrees.

endheader
time	pelvis_tilt	pelvis_list	pelvis_rotation	pelvis_tx	pelvis_ty	pelvis_tz	hip_flexion_r	hip_adduction_r	hip_rotation_r	knee_angle_r	ankle_angle_r	subtalar_angle_r	mtp_angle_r	hip_flexion_l	hip_adduction_l	hip_rotation_l	knee_angle_l	ankle_angle_l	subtalar_angle_l	mtp_angle_l	lumbar_extension	lumbar_bending	lumbar_rotation
      0.88266667	     -5.08570394	     -2.24480306	      2.52191960	     -0.16310497	      1.05143613	      0.29915362	     -0.79954649	      7.50470304	     -0.67938141	    -16.34361944	     11.61362216	    -11.87126389	     -3.21000355	     25.53570653	     -0.07312213	     -7.57536448	     -1.92017155	      8.02240486	      8.31644935	     -1.47523013	      6.50186095	      5.05226443	     -0.92531723
      0.88683333	     -5.06494923	     -2.25686009	      2.62138727	     -0.15712272	      1.05097460	      0.29870343	     -0.90061936	      7.46060546	     -1.04447625	    -16.89971272	     11.86836075	    -10.92987532	     -3.22414254	     25.45873204	      0.01413618	     -7.67536784	     -1.98806900	      8.04192483	      9.24788314	     -1.48893748	      6.49111048	      5.09917895	     -0.91414636
      0.89100000	     -5.04806762	     -2.28602134	      2.57531665	     -0.15127932	      1.05054927	      0.29865243	     -0.96894469	      7.45927313	     -1.07058834	    -17.48784270	     11.80564177	    -10.89402620	     -3.22507840	     25.34948378	      0.00503269	     -7.56259112	     -2.05543219	      7.99990268	      9.35279948	     -1.48883210	      6.55892638	      5.09445317	     -0.91087977
      0.89516667	     -5.03551979	     -2.31517667	      2.67157365	     -0.14534909	      1.05009524	      0.29827901	     -1.01271085	      7.43642992	     -1.38374352	    -18.10359517	     11.67562104	    -10.39249668	     -3.22171052	     25.27472607	      0.06652547	     -7.36181898	     -2.22164577	      7.79817369	      9.81856989	     -1.48325280	      6.55965846	      5.15191734	     -0.88690823
      0.89933333	     -5.00331014	     -2.31772300	      2.60849422	     -0.13944647	      1.04974449	      0.29826377	     -1.04873327	      7.39722340	     -1.43772082	    -18.79604498	     11.62000661	    -10.33496827	     -3.21989081	     25.14863943	      0.07100865	     -7.25366377	     -2.42439047	      7.76155813	      9.90775964	     -1.48046068	      6.62006314	      5.12327282	     -0.88304484
      0.90350000	     -4.98482858	     -2.33062637	      2.69946476	     -0.13349413	      1.04933637	      0.29787127	     -1.04142385	      7.34173487	     -1.81591722	    -19.52618263	     11.48638027	     -9.67103020	     -3.19896901	     25.07724249	      0.14569520	     -7.08184049	     -2.72736028	      7.55880583	     10.27627288	     -1.45992909	      6.57122601	      5.12931497	     -0.86151287
      0.90766667	     -4.93054489	     -2.31068812	      2.62519423	     -0.12754770	      1.04906774	      0.29790089	     -1.05067647	      7.27076709	     -1.87934248	    -20.32011644	     11.41421041	     -9.60203506	     -3.19452270	     24.92104099	      0.16119759	     -6.94996370	     -3.02036703	      7.50433177	     10.35545148	     -1.45495492	      6.64076588	      5.08964673	     -0.85610754
      0.91183333	     -4.90348657	     -2.30341766	      2.71951902	     -0.12158188	      1.04871437	      0.29749302	     -0.99552667	      7.17926101	     -2.29073774	    -21.15440604	     11.20475530	     -8.85031903	     -3.15406552	     24.83762269	      0.25590642	     -6.73633127	     -3.40206708	      7.21899591	     10.57354150	     -1.41959987	      6.58075130	      5.06803494	     -0.83127134
      0.91600000	     -4.83504772	     -2.26531501	      2.63558396	     -0.11561621	      1.04851965	      0.29753793	     -0.96013654	      7.07828697	     -2.38876847	    -22.06137295	     11.10345897	     -8.77138324	     -3.14629936	     24.65874363	      0.28312558	     -6.59204181	     -3.75577496	      7.14579384	     10.63013863	     -1.41218569	      6.63972617	      5.01369038	     -0.82479227
      0.92016667	     -4.79617551	     -2.20273047	      2.70784133	     -0.10956529	      1.04826780	      0.29697336	     -0.86184290	      6.88710436	     -2.85961487	    -23.02790723	     11.02607519	     -7.68966986	     -2.99462548	     24.51093474	      0.45003224	     -6.19701783	     -4.10615482	      6.75225942	     10.35104652	     -1.28371532	      6.58097939	      4.95554236	     -0.80899559
      0.92433333	     -4.75814685	     -2.16959709	      2.71370278	     -0.10362353	      1.04803922	      0.29681813	     -0.72528378	      6.76647343	     -3.13175743	    -24.02677097	     10.61873313	     -7.43020321	     -2.94841842	     24.39311593	      0.51609549	     -6.02709347	     -4.53840366	      6.50618924	     10.31865786	     -1.24504401	      6.54044713	      4.86883890	     -0.79045956
      0.92850000	     -4.70738650	     -2.10550547	      2.72779884	     -0.09760527	      1.04787446	      0.29652994	     -0.57987480	      6.58650916	     -3.46516722	    -25.07121607	     10.16535038	     -6.95955354	     -2.86085846	     24.23012872	      0.63089152	     -5.74169577	     -4.92951947	      6.14458074	     10.13405585	     -1.18015343	      6.55420299	      4.79518375	     -0.76456634
